<mxfile host="app.diagrams.net" modified="2024-06-13T21:59:26.435Z" agent="Mozilla/5.0 (Windows NT 10.0; Win64; x64) AppleWebKit/537.36 (KHTML, like Gecko) Chrome/125.0.0.0 Safari/537.36" version="24.5.4" etag="D09LvH21XlSFC_twseg9" type="github">
  <diagram name="Page-1" id="CmCUi5Esm50kT_lT8b5M">
    <mxGraphModel>
      <root>
        <mxCell id="0" />
        <mxCell id="1" parent="0" />
      </root>
    </mxGraphModel>
  </diagram>
</mxfile>
